<svg width="59" height="65" viewBox="0 0 59 65" fill="none" xmlns="http://www.w3.org/2000/svg">
<path d="M46.6338 0C43.4085 0.00363626 40.3162 1.2863 38.0355 3.56657C35.7549 5.84686 34.4718 8.93854 34.4683 12.1634V20.272H24.3307V12.1634C24.3142 8.94828 23.0253 5.87051 20.7456 3.6029C18.466 1.33529 15.3811 0.0623439 12.1654 0.0623439C8.94966 0.0623439 5.86476 1.33529 3.5851 3.6029C1.30546 5.87051 0.0164809 8.94828 0 12.1634V52.708C0.0164809 55.923 1.30546 59.0007 3.5851 61.2682C5.86476 63.5358 8.94966 64.8089 12.1654 64.8089C15.3811 64.8089 18.466 63.5358 20.7456 61.2682C23.0253 59.0007 24.3142 55.923 24.3307 52.708V48.6534L20.2755 46.6262V52.708C20.2755 54.3118 19.7999 55.8796 18.9087 57.2131C18.0175 58.5466 16.7508 59.5858 15.2688 60.1996C13.7868 60.8132 12.1561 60.9739 10.5828 60.6611C9.00957 60.3479 7.56444 59.5759 6.43021 58.4418C5.29598 57.3077 4.52355 55.8626 4.21064 54.2898C3.89776 52.7166 4.0584 51.0862 4.6723 49.6044C5.2862 48.123 6.32578 46.8562 7.65958 45.9653C8.99334 45.0744 10.5614 44.5989 12.1655 44.5989H46.6338C48.238 44.5989 49.8061 45.0744 51.1396 45.9656C52.4734 46.8566 53.5129 48.123 54.1268 49.6047C54.7407 51.0865 54.9014 52.7169 54.5882 54.2898C54.2754 55.8629 53.503 57.3077 52.3686 58.4418C51.2345 59.5759 49.7895 60.3482 48.216 60.6611C46.6428 60.9739 45.0121 60.8132 43.53 60.1996C42.0482 59.5858 40.7815 58.5466 39.8902 57.2131C38.9993 55.8796 38.5235 54.3118 38.5235 52.708V48.6534L34.4683 46.6262V52.708C34.4849 55.923 35.7737 59.0007 38.0534 61.2682C40.3331 63.5358 43.4181 64.8089 46.6335 64.8089C49.8492 64.8089 52.9342 63.5358 55.2139 61.2682C57.4936 59.0007 58.7824 55.923 58.799 52.708V12.1634C58.7955 8.9386 57.5125 5.84696 55.2318 3.5667C52.9515 1.28642 49.8591 0.00372082 46.6338 0ZM38.5235 12.1634C38.5235 10.5596 38.999 8.99174 39.8902 7.6582C40.7815 6.32466 42.0479 5.28527 43.53 4.67147C45.0118 4.0577 46.6425 3.89705 48.216 4.2099C49.7891 4.52275 51.2342 5.29502 52.3686 6.42906C53.503 7.5631 54.2754 9.00798 54.5882 10.581C54.9014 12.1539 54.7407 13.7844 54.1268 15.2661C53.5129 16.7478 52.4734 18.0143 51.1399 18.9053C49.8061 19.7964 48.238 20.272 46.6338 20.272H38.5235V12.1634ZM12.1655 4.05447C14.3157 4.05699 16.3771 4.91216 17.8975 6.43232C19.4179 7.95248 20.2731 10.0136 20.2755 12.1634V20.272H12.1655C11.0962 20.2787 10.0361 20.0739 9.04623 19.6694C8.05637 19.2649 7.15627 18.6686 6.39778 17.915C5.63924 17.1614 5.03726 16.2652 4.62651 15.2781C4.21575 14.291 4.00427 13.2324 4.00427 12.1632C4.00427 11.094 4.21575 10.0354 4.62651 9.0483C5.03726 8.06116 5.63924 7.165 6.39778 6.41136C7.15627 5.65775 8.05637 5.06152 9.04623 4.65702C10.0361 4.25253 11.0962 4.04776 12.1655 4.05447ZM46.6338 40.5437H12.1655C9.17124 40.5412 6.28206 41.6471 4.05517 43.6485V21.2215C6.2821 23.2227 9.17127 24.3287 12.1655 24.3261H46.6338C49.6281 24.3287 52.5172 23.2227 54.7439 21.2215V43.6485C52.5172 41.6471 49.6281 40.5412 46.6338 40.5437Z" fill="url(#paint0_linear_352_5208)"/>
<defs>
<linearGradient id="paint0_linear_352_5208" x1="29.3995" y1="0" x2="29.3995" y2="64.8089" gradientUnits="userSpaceOnUse">
<stop stop-color="#80D6A3"/>
<stop offset="1" stop-color="#666666"/>
</linearGradient>
</defs>
</svg>
